<svg width="170" height="63" viewBox="0 0 170 63" fill="none" xmlns="http://www.w3.org/2000/svg">
<g filter="url(#filter0_d_103_4)">
<path d="M39.2731 36.2C39.8491 37.208 39.2731 38.696 37.8811 39.272C37.4491 39.464 36.9691 39.512 36.4411 39.512C34.3291 39.512 31.5451 38.36 29.8651 37.544C27.7531 36.536 21.7051 33.128 19.0171 33.032C21.9451 26.216 25.5451 7.112 32.6491 5.144C31.1611 2.168 28.8091 1.688 25.1611 2.024C24.1051 2.12 23.0971 2.168 22.0891 2.168C19.2091 2.168 16.7611 1.688 14.7931 0.439999C14.7931 0.439999 13.9291 5.96 19.3051 7.016C21.4651 7.448 24.1531 6.488 25.8331 6.104C23.5771 7.112 21.7531 9.272 20.2171 12.2C18.9691 14.552 14.4091 25.256 14.0251 26.072C12.3931 29.432 10.8091 30.776 9.56106 30.776C8.55306 30.776 7.73706 29.864 7.20906 28.472C4.95306 32.408 7.16106 38.792 13.7371 38.168C14.4571 38.12 15.1291 37.88 15.6571 37.496C20.6011 37.784 24.1531 44.792 32.6971 48.008C34.0891 48.536 35.4811 48.776 36.7771 48.776C40.2331 48.776 43.2091 47.144 44.3131 44.552C45.8491 41.096 42.9691 36.392 39.2731 36.2ZM48.2584 13.544C46.8184 11.528 44.2264 10.664 41.8264 10.664C39.8104 10.664 37.9384 11.24 36.9304 12.392C31.3144 13.064 26.7064 20.12 26.1784 25.352C25.4584 32.168 29.4904 35.624 34.4824 35.624C40.8184 35.624 46.0504 30.776 48.4984 25.304C51.0904 24.872 53.6824 23.864 55.7944 22.328L58.3384 18.056C55.8904 19.784 52.7224 20.984 49.7464 21.368C50.2264 18.584 49.9384 15.752 48.2584 13.544ZM45.4264 21.32C43.6504 20.984 42.2104 20.216 41.2504 18.92C40.0024 17.144 39.8584 15.224 40.8184 14.648C42.0664 14.36 43.3624 14.6 44.3704 15.56C45.6664 16.808 45.7624 19.256 45.4264 21.32ZM43.9384 25.352C42.3544 28.04 39.7144 30.488 36.9784 30.584C30.8344 30.824 32.7064 22.088 35.6344 18.248C35.7304 18.104 35.8744 17.96 35.9704 17.816C36.2584 22.232 39.8104 24.776 43.9384 25.352ZM57.0612 34.76C57.6372 34.904 58.2132 34.952 58.7412 34.952C61.1412 34.952 63.2052 33.704 65.1732 31.64C65.3652 33.608 66.3732 34.904 68.4372 34.904C71.5092 34.904 74.7732 31.496 74.7732 31.496C74.7732 31.496 74.3892 31.736 73.9092 31.736C72.9972 31.736 71.8932 30.824 73.5732 25.304C75.0132 20.6 77.1252 15.32 78.2292 13.016C78.6612 12.104 75.4452 11.192 73.0932 11.192C71.8932 11.192 70.9332 11.384 70.6932 11.96C70.1652 13.16 69.5412 14.792 68.8692 16.568C69.0612 14.888 68.6292 13.448 67.3812 12.68C66.7092 12.296 65.7972 12.056 64.7412 12.056C60.8052 12.056 54.9492 14.936 52.4052 22.424C50.0532 29.384 53.0772 33.896 57.0612 34.76ZM60.3252 18.824C58.6932 22.184 60.6612 24.536 62.9172 24.536C64.8852 24.536 66.2292 22.856 67.1412 21.32C66.4692 23.384 66.2772 25.496 65.5572 27.224C64.7892 29.144 62.8692 30.536 60.9972 30.392C56.4852 30.104 56.3412 23.48 58.0212 19.4C59.0772 16.904 61.2372 15.416 62.8692 15.416C63.7332 15.416 64.4532 15.848 64.7892 16.808C64.9812 17.432 64.4052 19.256 62.2932 19.256C61.7652 19.256 61.0932 19.16 60.3252 18.824ZM82.1003 34.568C82.6283 34.712 83.1563 34.76 83.6843 34.76C85.9883 34.76 88.0523 33.56 89.8763 31.592C90.0203 33.704 91.0763 34.952 93.2843 34.952C96.3083 34.952 99.3803 31.736 99.3803 31.736C99.3803 31.736 98.9963 31.928 98.5643 31.928C97.6523 31.928 96.5483 31.064 98.1803 25.784C99.5723 21.176 104.804 7.88 107.348 2.696C107.732 1.976 105.668 1.496 103.604 1.496C101.924 1.496 100.244 1.784 99.9083 2.552C98.8523 5.096 95.9243 11.288 93.4283 17.576C93.8123 15.704 93.4763 13.976 92.0843 13.16C91.4123 12.776 90.5483 12.536 89.5403 12.536C85.8923 12.536 80.5643 15.272 77.6363 22.568C74.9963 29.192 78.2603 33.704 82.1003 34.568ZM85.3643 19.064C83.7323 22.376 85.6043 24.584 87.7643 24.584C89.7803 24.584 91.2203 22.712 92.0843 21.128C91.4123 23.24 91.0763 25.4 90.3563 27.224C89.5883 29.096 87.7643 30.392 85.9403 30.248C81.5723 29.96 81.3803 23.624 83.0603 19.688C84.1163 17.288 86.2283 15.8 87.7643 15.8C88.5803 15.8 89.3003 16.232 89.5883 17.144C89.7803 17.768 89.2043 19.496 87.2843 19.496C86.7563 19.496 86.1323 19.4 85.3643 19.064ZM113.02 1.4C110.668 1.4 108.796 3.32 108.796 5.624C108.796 7.976 110.668 9.848 113.02 9.848C115.324 9.848 117.244 7.976 117.244 5.624C117.244 3.32 115.324 1.4 113.02 1.4ZM106.3 13.352C103.9 19.16 98.8598 31.496 102.22 34.28C102.94 34.856 103.708 35.096 104.476 35.096C107.596 35.096 110.908 31.688 110.908 31.688C110.908 31.688 110.524 31.88 110.092 31.88C109.132 31.88 107.98 30.968 109.708 25.352C111.148 20.6 112.876 16.76 113.98 14.408C114.412 13.448 111.196 12.536 108.748 12.536C107.548 12.536 106.54 12.776 106.3 13.352ZM125.328 12.968C125.472 12.104 122.448 11.288 120.192 11.288C118.992 11.288 117.984 11.48 117.744 12.056C115.392 17.72 109.968 31.4 113.28 34.088C114 34.664 114.768 34.904 115.536 34.904C118.56 34.904 121.872 31.544 121.872 31.544C121.872 31.544 121.488 31.736 121.008 31.736C120.096 31.736 118.944 30.872 120.624 25.352C121.68 21.896 122.544 17.816 124.224 15.512C124.944 14.552 126 14.072 127.008 14.072C127.776 14.072 128.496 14.36 129.072 14.84C129.84 15.512 129.456 17.336 128.928 18.824C126.768 24.968 124.8 32.168 127.104 34.088C127.776 34.664 128.544 34.856 129.312 34.856C132.384 34.856 135.648 31.496 135.648 31.496C135.648 31.496 135.264 31.736 134.832 31.736C133.92 31.736 132.816 30.824 134.448 25.304C135.12 23.144 136.128 20.936 136.704 18.824C137.76 14.84 135.504 11.144 131.184 11.144C129.504 11.144 127.536 11.672 125.328 12.968ZM136.458 42.248C135.114 44.936 134.634 47.816 136.65 50.312C138.33 52.376 140.586 53.336 142.842 53.336C149.37 53.336 152.202 47.144 154.17 41.96C158.538 44.312 161.706 48.92 163.674 54.296C165.786 48.728 165.978 40.664 157.002 37.208L155.898 36.776C156.906 32.504 158.01 28.184 159.306 23.96C159.306 23.912 159.306 23.912 159.306 23.864C159.306 23.864 157.962 23.24 156.138 23.432C154.362 23.624 152.49 24.104 152.154 25.208C151.578 26.84 151.242 28.376 150.762 30.056C145.434 29.288 144.522 22.232 146.298 18.056C147.306 15.608 149.562 13.88 151.194 13.88C151.866 13.88 152.394 14.216 152.73 14.888C153.21 15.896 152.106 17.864 149.994 17.864C149.514 17.864 148.938 17.72 148.314 17.48C146.682 20.888 148.458 23.624 151.434 23.624C152.154 23.624 152.874 23.48 153.642 23.192C157.77 21.608 158.778 13.112 153.786 11.48C153.114 11.288 152.346 11.144 151.482 11.144C147.786 11.144 142.458 13.352 139.05 20.216C137.034 24.2 137.514 28.04 139.338 30.68C140.778 32.792 143.466 33.752 145.914 33.752C147.594 33.752 149.178 33.272 150.09 32.36C149.706 33.512 149.274 34.712 148.842 35.864C143.802 36.008 138.666 37.88 136.458 42.248ZM146.874 40.232C145.53 42.872 143.946 45.224 142.65 45.224C142.41 45.224 142.218 45.176 142.026 45.032C140.874 44.12 141.834 40.472 146.874 40.232Z" fill="#00FF00"/>
</g>
<defs>
<filter id="filter0_d_103_4" x="0.953003" y="0.440002" width="169.025" height="61.856" filterUnits="userSpaceOnUse" color-interpolation-filters="sRGB">
<feFlood flood-opacity="0" result="BackgroundImageFix"/>
<feColorMatrix in="SourceAlpha" type="matrix" values="0 0 0 0 0 0 0 0 0 0 0 0 0 0 0 0 0 0 127 0" result="hardAlpha"/>
<feOffset dy="4"/>
<feGaussianBlur stdDeviation="2"/>
<feComposite in2="hardAlpha" operator="out"/>
<feColorMatrix type="matrix" values="0 0 0 0 0 0 0 0 0 0 0 0 0 0 0 0 0 0 0.25 0"/>
<feBlend mode="normal" in2="BackgroundImageFix" result="effect1_dropShadow_103_4"/>
<feBlend mode="normal" in="SourceGraphic" in2="effect1_dropShadow_103_4" result="shape"/>
</filter>
</defs>
</svg>
