<?xml version="1.0" encoding="UTF-8"?>
<!--Generator: Apple Native CoreSVG 175.5-->
<!DOCTYPE svg
PUBLIC "-//W3C//DTD SVG 1.1//EN"
       "http://www.w3.org/Graphics/SVG/1.1/DTD/svg11.dtd">
<svg version="1.1" xmlns="http://www.w3.org/2000/svg" xmlns:xlink="http://www.w3.org/1999/xlink" width="3300" height="2200">
 <!--glyph: "", point size: 100.0, font version: "18.0d12e2", template writer version: "101"-->
 <style>.monochrome-0 {fill:#000000}
.monochrome-1 {fill:#000000}
.monochrome-2 {fill:#000000}
.monochrome-3 {fill:#000000}
.monochrome-4 {fill:#000000}
.monochrome-5 {fill:#000000}
.monochrome-6 {fill:#000000}

.multicolor-0:tintColor {fill:#007AFF;opacity:0.0;-sfsymbols-clear-behind:true}
.multicolor-1:systemIndigoColor {fill:#5856D6}
.multicolor-2:systemBlueColor {fill:#007AFF}
.multicolor-3:systemIndigoColor {fill:#5856D6}
.multicolor-4:systemBlueColor {fill:#007AFF}
.multicolor-5:systemIndigoColor {fill:#5856D6}
.multicolor-6:systemBlueColor {fill:#007AFF}

.SFSymbolsPreview007AFF {fill:#007AFF;opacity:1.0}
.SFSymbolsPreview5856D6 {fill:#5856D6;opacity:1.0}
.SFSymbolsPreviewFFFFFF {fill:#FFFFFF;opacity:1.0}
</style>
 <g id="Notes">
  <rect height="2200" id="artboard" style="fill:white;opacity:1" width="3300" x="0" y="0"/>
  <line style="fill:none;stroke:black;opacity:1;stroke-width:0.5;" x1="263" x2="3036" y1="292" y2="292"/>
  <text style="stroke:none;fill:black;font-family:sans-serif;font-size:13;font-weight:bold;" transform="matrix(1 0 0 1 263 322)">Weight/Scale Variations</text>
  <text style="stroke:none;fill:black;font-family:sans-serif;font-size:13;text-anchor:middle;" transform="matrix(1 0 0 1 559.711 322)">Ultralight</text>
  <text style="stroke:none;fill:black;font-family:sans-serif;font-size:13;text-anchor:middle;" transform="matrix(1 0 0 1 856.422 322)">Thin</text>
  <text style="stroke:none;fill:black;font-family:sans-serif;font-size:13;text-anchor:middle;" transform="matrix(1 0 0 1 1153.13 322)">Light</text>
  <text style="stroke:none;fill:black;font-family:sans-serif;font-size:13;text-anchor:middle;" transform="matrix(1 0 0 1 1449.84 322)">Regular</text>
  <text style="stroke:none;fill:black;font-family:sans-serif;font-size:13;text-anchor:middle;" transform="matrix(1 0 0 1 1746.56 322)">Medium</text>
  <text style="stroke:none;fill:black;font-family:sans-serif;font-size:13;text-anchor:middle;" transform="matrix(1 0 0 1 2043.27 322)">Semibold</text>
  <text style="stroke:none;fill:black;font-family:sans-serif;font-size:13;text-anchor:middle;" transform="matrix(1 0 0 1 2339.98 322)">Bold</text>
  <text style="stroke:none;fill:black;font-family:sans-serif;font-size:13;text-anchor:middle;" transform="matrix(1 0 0 1 2636.69 322)">Heavy</text>
  <text style="stroke:none;fill:black;font-family:sans-serif;font-size:13;text-anchor:middle;" transform="matrix(1 0 0 1 2933.4 322)">Black</text>
  <line style="fill:none;stroke:black;opacity:1;stroke-width:0.5;" x1="263" x2="3036" y1="1903" y2="1903"/>
  <g transform="matrix(1 0 0 1 263 1933)">
   <path d="M9.24805 0.830078C13.5547 0.830078 17.1387-2.74414 17.1387-7.05078C17.1387-11.3574 13.5449-14.9316 9.23828-14.9316C4.94141-14.9316 1.36719-11.3574 1.36719-7.05078C1.36719-2.74414 4.95117 0.830078 9.24805 0.830078ZM9.24805-0.654297C5.70312-0.654297 2.87109-3.49609 2.87109-7.05078C2.87109-10.6055 5.69336-13.4473 9.23828-13.4473C12.793-13.4473 15.6445-10.6055 15.6445-7.05078C15.6445-3.49609 12.8027-0.654297 9.24805-0.654297ZM5.6543-7.05078C5.6543-6.62109 5.95703-6.32812 6.40625-6.32812L8.50586-6.32812L8.50586-4.20898C8.50586-3.76953 8.79883-3.4668 9.22852-3.4668C9.67773-3.4668 9.9707-3.76953 9.9707-4.20898L9.9707-6.32812L12.0898-6.32812C12.5293-6.32812 12.832-6.62109 12.832-7.05078C12.832-7.49023 12.5293-7.79297 12.0898-7.79297L9.9707-7.79297L9.9707-9.90234C9.9707-10.3516 9.67773-10.6543 9.22852-10.6543C8.79883-10.6543 8.50586-10.3516 8.50586-9.90234L8.50586-7.79297L6.40625-7.79297C5.95703-7.79297 5.6543-7.49023 5.6543-7.05078Z"/>
  </g>
  <g transform="matrix(1 0 0 1 281.867 1933)">
   <path d="M11.709 2.91016C17.1582 2.91016 21.6699-1.61133 21.6699-7.05078C21.6699-12.5 17.1484-17.0117 11.6992-17.0117C6.25977-17.0117 1.74805-12.5 1.74805-7.05078C1.74805-1.61133 6.26953 2.91016 11.709 2.91016ZM11.709 1.25C7.09961 1.25 3.41797-2.44141 3.41797-7.05078C3.41797-11.6602 7.08984-15.3516 11.6992-15.3516C16.3086-15.3516 20.0098-11.6602 20.0098-7.05078C20.0098-2.44141 16.3184 1.25 11.709 1.25ZM7.17773-7.05078C7.17773-6.57227 7.50977-6.25 8.00781-6.25L10.8789-6.25L10.8789-3.36914C10.8789-2.88086 11.2109-2.53906 11.6895-2.53906C12.1777-2.53906 12.5195-2.87109 12.5195-3.36914L12.5195-6.25L15.4004-6.25C15.8887-6.25 16.2305-6.57227 16.2305-7.05078C16.2305-7.53906 15.8887-7.88086 15.4004-7.88086L12.5195-7.88086L12.5195-10.752C12.5195-11.25 12.1777-11.5918 11.6895-11.5918C11.2109-11.5918 10.8789-11.25 10.8789-10.752L10.8789-7.88086L8.00781-7.88086C7.50977-7.88086 7.17773-7.53906 7.17773-7.05078Z"/>
  </g>
  <g transform="matrix(1 0 0 1 305.646 1933)">
   <path d="M14.9707 5.66406C21.9336 5.66406 27.6953-0.0976562 27.6953-7.05078C27.6953-14.0137 21.9238-19.7754 14.9609-19.7754C8.00781-19.7754 2.25586-14.0137 2.25586-7.05078C2.25586-0.0976562 8.01758 5.66406 14.9707 5.66406ZM14.9707 3.84766C8.93555 3.84766 4.08203-1.01562 4.08203-7.05078C4.08203-13.0957 8.92578-17.9492 14.9609-17.9492C21.0059-17.9492 25.8691-13.0957 25.8691-7.05078C25.8691-1.01562 21.0156 3.84766 14.9707 3.84766ZM9.19922-7.05078C9.19922-6.5332 9.57031-6.17188 10.1172-6.17188L14.0625-6.17188L14.0625-2.2168C14.0625-1.67969 14.4336-1.29883 14.9512-1.29883C15.4883-1.29883 15.8594-1.66992 15.8594-2.2168L15.8594-6.17188L19.8145-6.17188C20.3516-6.17188 20.7324-6.5332 20.7324-7.05078C20.7324-7.59766 20.3613-7.96875 19.8145-7.96875L15.8594-7.96875L15.8594-11.9141C15.8594-12.4609 15.4883-12.8418 14.9512-12.8418C14.4336-12.8418 14.0625-12.4609 14.0625-11.9141L14.0625-7.96875L10.1172-7.96875C9.57031-7.96875 9.19922-7.59766 9.19922-7.05078Z"/>
  </g>
  <text style="stroke:none;fill:black;font-family:sans-serif;font-size:13;font-weight:bold;" transform="matrix(1 0 0 1 263 1953)">Design Variations</text>
  <text style="stroke:none;fill:black;font-family:sans-serif;font-size:13;" transform="matrix(1 0 0 1 263 1971)">Symbols are supported in up to nine weights and three scales.</text>
  <text style="stroke:none;fill:black;font-family:sans-serif;font-size:13;" transform="matrix(1 0 0 1 263 1989)">For optimal layout with text and other symbols, vertically align</text>
  <text style="stroke:none;fill:black;font-family:sans-serif;font-size:13;" transform="matrix(1 0 0 1 263 2007)">symbols with the adjacent text.</text>
  <line style="fill:none;stroke:#00AEEF;stroke-width:0.5;opacity:1.0;" x1="776" x2="776" y1="1919" y2="1933"/>
  <g transform="matrix(1 0 0 1 776 1933)">
   <path d="M3.31055 0.15625C3.82812 0.15625 4.08203-0.0390625 4.26758-0.585938L5.52734-4.0332L11.2891-4.0332L12.5488-0.585938C12.7344-0.0390625 12.9883 0.15625 13.4961 0.15625C14.0137 0.15625 14.3457-0.15625 14.3457-0.644531C14.3457-0.810547 14.3164-0.966797 14.2383-1.17188L9.6582-13.3691C9.43359-13.9648 9.0332-14.2676 8.4082-14.2676C7.80273-14.2676 7.39258-13.9746 7.17773-13.3789L2.59766-1.16211C2.51953-0.957031 2.49023-0.800781 2.49023-0.634766C2.49023-0.146484 2.80273 0.15625 3.31055 0.15625ZM6.00586-5.51758L8.37891-12.0898L8.42773-12.0898L10.8008-5.51758Z"/>
  </g>
  <line style="fill:none;stroke:#00AEEF;stroke-width:0.5;opacity:1.0;" x1="793.197" x2="793.197" y1="1919" y2="1933"/>
  <text style="stroke:none;fill:black;font-family:sans-serif;font-size:13;font-weight:bold;" transform="matrix(1 0 0 1 776 1953)">Margins</text>
  <text style="stroke:none;fill:black;font-family:sans-serif;font-size:13;" transform="matrix(1 0 0 1 776 1971)">Leading and trailing margins on the left and right side of each symbol</text>
  <text style="stroke:none;fill:black;font-family:sans-serif;font-size:13;" transform="matrix(1 0 0 1 776 1989)">can be adjusted by modifying the x-location of the margin guidelines.</text>
  <text style="stroke:none;fill:black;font-family:sans-serif;font-size:13;" transform="matrix(1 0 0 1 776 2007)">Modifications are automatically applied proportionally to all</text>
  <text style="stroke:none;fill:black;font-family:sans-serif;font-size:13;" transform="matrix(1 0 0 1 776 2025)">scales and weights.</text>
  <g transform="matrix(1 0 0 1 1289 1933)">
   <path d="M2.8418 1.86523L4.54102 3.57422C5.40039 4.44336 6.38672 4.38477 7.31445 3.35938L18.0078-8.42773L17.041-9.4043L6.42578 2.27539C6.07422 2.67578 5.74219 2.77344 5.27344 2.30469L4.10156 1.14258C3.63281 0.683594 3.74023 0.341797 4.14062-0.0195312L15.6152-10.8203L14.6387-11.7871L3.04688-0.898438C2.06055 0.0195312 1.98242 0.996094 2.8418 1.86523ZM9.25781-16.3281C8.83789-15.918 8.80859-15.3418 9.04297-14.9512C9.27734-14.5898 9.73633-14.3555 10.3809-14.5215C11.8457-14.8633 13.3691-14.9219 14.7949-13.9844L14.209-12.5293C13.8672-11.6992 14.043-11.1133 14.5801-10.5664L16.875-8.25195C17.3633-7.76367 17.7734-7.74414 18.3398-7.8418L19.4043-8.03711L20.0684-7.36328L20.0293-6.80664C19.9902-6.30859 20.1172-5.92773 20.6055-5.44922L21.3672-4.70703C21.8457-4.22852 22.4609-4.19922 22.9297-4.66797L25.8398-7.58789C26.3086-8.05664 26.2891-8.65234 25.8105-9.13086L25.0391-9.89258C24.5605-10.3711 24.1895-10.5273 23.7109-10.4883L23.1348-10.4395L22.4902-11.0742L22.7344-12.1973C22.8613-12.7637 22.7051-13.2031 22.1191-13.7891L19.9219-15.9766C16.582-19.2969 12.1484-19.2188 9.25781-16.3281ZM10.752-15.957C13.1836-17.7344 16.4746-17.4316 18.7012-15.2051L21.1328-12.793C21.3672-12.5586 21.4062-12.373 21.3379-12.0312L21.0156-10.5469L22.5195-9.0625L23.5059-9.12109C23.7598-9.13086 23.8379-9.11133 24.0332-8.91602L24.6094-8.33984L22.168-5.89844L21.5918-6.47461C21.3965-6.66992 21.3672-6.74805 21.377-7.01172L21.4453-7.98828L19.9512-9.47266L18.4277-9.21875C18.1055-9.15039 17.959-9.17969 17.7148-9.41406L15.7129-11.416C15.459-11.6504 15.4297-11.8164 15.5859-12.1875L16.4648-14.2773C14.9023-15.7324 12.8711-16.3574 10.8398-15.7617C10.6836-15.7227 10.625-15.8496 10.752-15.957Z"/>
  </g>
  <text style="stroke:none;fill:black;font-family:sans-serif;font-size:13;font-weight:bold;" transform="matrix(1 0 0 1 1289 1953)">Exporting</text>
  <text style="stroke:none;fill:black;font-family:sans-serif;font-size:13;" transform="matrix(1 0 0 1 1289 1971)">Symbols should be outlined when exporting to ensure the</text>
  <text style="stroke:none;fill:black;font-family:sans-serif;font-size:13;" transform="matrix(1 0 0 1 1289 1989)">design is preserved when submitting to Xcode.</text>
  <text id="template-version" style="stroke:none;fill:black;font-family:sans-serif;font-size:13;text-anchor:end;" transform="matrix(1 0 0 1 3036 1933)">Template v.4.0</text>
  <text style="stroke:none;fill:black;font-family:sans-serif;font-size:13;text-anchor:end;" transform="matrix(1 0 0 1 3036 1951)">Requires Xcode 14 or greater</text>
  <text id="descriptive-name" style="stroke:none;fill:black;font-family:sans-serif;font-size:13;text-anchor:end;" transform="matrix(1 0 0 1 3036 1969)">Generated from custom.circle.hexagongrid.fill.indigo.blue</text>
  <text style="stroke:none;fill:black;font-family:sans-serif;font-size:13;text-anchor:end;" transform="matrix(1 0 0 1 3036 1987)">Typeset at 100 points</text>
  <text style="stroke:none;fill:black;font-family:sans-serif;font-size:13;" transform="matrix(1 0 0 1 263 726)">Small</text>
  <text style="stroke:none;fill:black;font-family:sans-serif;font-size:13;" transform="matrix(1 0 0 1 263 1156)">Medium</text>
  <text style="stroke:none;fill:black;font-family:sans-serif;font-size:13;" transform="matrix(1 0 0 1 263 1586)">Large</text>
 </g>
 <g id="Guides">
  <g id="H-reference" style="fill:#27AAE1;stroke:none;" transform="matrix(1 0 0 1 339 696)">
   <path d="M0.993654 0L3.63775 0L29.3281-67.1323L30.0303-67.1323L30.0303-70.459L28.1226-70.459ZM11.6885-24.4799L46.9815-24.4799L46.2315-26.7285L12.4385-26.7285ZM55.1196 0L57.7637 0L30.6382-70.459L29.4326-70.459L29.4326-67.1323Z"/>
  </g>
  <line id="Baseline-S" style="fill:none;stroke:#27AAE1;opacity:1;stroke-width:0.5;" x1="263" x2="3036" y1="696" y2="696"/>
  <line id="Capline-S" style="fill:none;stroke:#27AAE1;opacity:1;stroke-width:0.5;" x1="263" x2="3036" y1="625.541" y2="625.541"/>
  <g id="H-reference" style="fill:#27AAE1;stroke:none;" transform="matrix(1 0 0 1 339 1126)">
   <path d="M0.993654 0L3.63775 0L29.3281-67.1323L30.0303-67.1323L30.0303-70.459L28.1226-70.459ZM11.6885-24.4799L46.9815-24.4799L46.2315-26.7285L12.4385-26.7285ZM55.1196 0L57.7637 0L30.6382-70.459L29.4326-70.459L29.4326-67.1323Z"/>
  </g>
  <line id="Baseline-M" style="fill:none;stroke:#27AAE1;opacity:1;stroke-width:0.5;" x1="263" x2="3036" y1="1126" y2="1126"/>
  <line id="Capline-M" style="fill:none;stroke:#27AAE1;opacity:1;stroke-width:0.5;" x1="263" x2="3036" y1="1055.54" y2="1055.54"/>
  <g id="H-reference" style="fill:#27AAE1;stroke:none;" transform="matrix(1 0 0 1 339 1556)">
   <path d="M0.993654 0L3.63775 0L29.3281-67.1323L30.0303-67.1323L30.0303-70.459L28.1226-70.459ZM11.6885-24.4799L46.9815-24.4799L46.2315-26.7285L12.4385-26.7285ZM55.1196 0L57.7637 0L30.6382-70.459L29.4326-70.459L29.4326-67.1323Z"/>
  </g>
  <line id="Baseline-L" style="fill:none;stroke:#27AAE1;opacity:1;stroke-width:0.5;" x1="263" x2="3036" y1="1556" y2="1556"/>
  <line id="Capline-L" style="fill:none;stroke:#27AAE1;opacity:1;stroke-width:0.5;" x1="263" x2="3036" y1="1485.54" y2="1485.54"/>
  <line id="left-margin-Ultralight-S" style="fill:none;stroke:#00AEEF;stroke-width:0.5;opacity:1.0;" x1="515.634" x2="515.634" y1="600.785" y2="720.121"/>
  <line id="right-margin-Ultralight-S" style="fill:none;stroke:#00AEEF;stroke-width:0.5;opacity:1.0;" x1="603.788" x2="603.788" y1="600.785" y2="720.121"/>
  <line id="left-margin-Regular-S" style="fill:none;stroke:#00AEEF;stroke-width:0.5;opacity:1.0;" x1="1403.04" x2="1403.04" y1="600.785" y2="720.121"/>
  <line id="right-margin-Regular-S" style="fill:none;stroke:#00AEEF;stroke-width:0.5;opacity:1.0;" x1="1496.65" x2="1496.65" y1="600.785" y2="720.121"/>
  <line id="left-margin-Black-S" style="fill:none;stroke:#00AEEF;stroke-width:0.5;opacity:1.0;" x1="2881.4" x2="2881.4" y1="600.785" y2="720.121"/>
  <line id="right-margin-Black-S" style="fill:none;stroke:#00AEEF;stroke-width:0.5;opacity:1.0;" x1="2985.4" x2="2985.4" y1="600.785" y2="720.121"/>
 </g>
 <g id="Symbols">
  <g id="Black-S" transform="matrix(1 0 0 1 2881.4 696)">
   <path class="monochrome-0 multicolor-0:tintColor SFSymbolsPreviewFFFFFF" d="M52.002-22.2168C59.1309-22.2168 65.0391-28.125 65.0391-35.2539C65.0391-42.3828 59.1309-48.291 52.002-48.291C44.873-48.291 38.9648-42.3828 38.9648-35.2539C38.9648-28.125 44.873-22.2168 52.002-22.2168Z"/>
   <path class="monochrome-1 multicolor-1:systemIndigoColor SFSymbolsPreview5856D6" d="M35.9375-50.9277C43.0664-50.9277 49.0234-56.8359 49.0234-63.9648C49.0234-71.0938 43.0664-77.0996 35.9375-77.0996C28.8086-77.0996 22.9004-71.0938 22.9004-63.9648C22.9004-56.9824 28.7598-50.9277 35.9375-50.9277Z"/>
   <path class="monochrome-2 multicolor-2:systemBlueColor SFSymbolsPreview007AFF" d="M19.9219-22.2168C27.0508-22.2168 33.0078-28.125 33.0078-35.2539C33.0078-42.3828 27.0508-48.291 19.9219-48.291C12.793-48.291 6.83594-42.3828 6.83594-35.2539C6.83594-28.1738 12.6953-22.2168 19.9219-22.2168Z"/>
   <path class="monochrome-3 multicolor-3:systemIndigoColor SFSymbolsPreview5856D6" d="M35.9375 6.5918C43.1152 6.5918 49.0234 0.683594 49.0234-6.54297C49.0234-13.6719 43.0664-19.5801 35.9375-19.5801C28.8086-19.5801 22.9004-13.6719 22.9004-6.54297C22.9004 0.537109 28.7598 6.5918 35.9375 6.5918Z"/>
   <path class="monochrome-4 multicolor-4:systemBlueColor SFSymbolsPreview007AFF" d="M68.0664 6.5918C75.1953 6.5918 81.1035 0.585938 81.1035-6.54297C81.1035-13.6719 75.1953-19.5801 68.0664-19.5801C60.9375-19.5801 54.9805-13.6719 54.9805-6.54297C54.9805 0.585938 60.9375 6.5918 68.0664 6.5918Z"/>
   <path class="monochrome-5 multicolor-5:systemIndigoColor SFSymbolsPreview5856D6" d="M84.082-22.2168C91.2109-22.2168 97.168-28.125 97.168-35.2539C97.168-42.3828 91.2109-48.291 84.082-48.291C76.9531-48.291 70.9961-42.3828 70.9961-35.2539C70.9961-28.125 76.9531-22.2168 84.082-22.2168Z"/>
   <path class="monochrome-6 multicolor-6:systemBlueColor SFSymbolsPreview007AFF" d="M68.0664-50.9277C75.1953-50.9277 81.1035-56.8359 81.1035-63.9648C81.1035-71.0938 75.1953-77.0996 68.0664-77.0996C60.9375-77.0996 54.9805-71.0938 54.9805-63.9648C54.9805-56.8359 60.9375-50.9277 68.0664-50.9277Z"/>
  </g>
  <g id="Regular-S" transform="matrix(1 0 0 1 1403.04 696)">
   <path class="monochrome-0 multicolor-0:tintColor SFSymbolsPreviewFFFFFF" d="M46.8262-23.6816C53.125-23.6816 58.3984-28.9551 58.3984-35.2539C58.3984-41.5527 53.125-46.8262 46.8262-46.8262C40.4785-46.8262 35.2539-41.5527 35.2539-35.2539C35.2539-28.9551 40.4785-23.6816 46.8262-23.6816Z"/>
   <path class="monochrome-1 multicolor-1:systemIndigoColor SFSymbolsPreview5856D6" d="M32.6172-49.1699C38.916-49.1699 44.1895-54.3945 44.1895-60.6934C44.1895-66.9922 38.916-72.2656 32.6172-72.2656C26.2695-72.2656 21.0449-66.9922 21.0449-60.6934C21.0449-54.4434 26.2207-49.1699 32.6172-49.1699Z"/>
   <path class="monochrome-2 multicolor-2:systemBlueColor SFSymbolsPreview007AFF" d="M18.4082-23.6816C24.7559-23.6816 29.9805-28.9551 29.9805-35.2539C29.9805-41.5527 24.7559-46.8262 18.4082-46.8262C12.1094-46.8262 6.83594-41.5527 6.83594-35.2539C6.83594-29.0039 12.0605-23.6816 18.4082-23.6816Z"/>
   <path class="monochrome-3 multicolor-3:systemIndigoColor SFSymbolsPreview5856D6" d="M32.6172 1.75781C38.916 1.75781 44.1895-3.51562 44.1895-9.81445C44.1895-16.1133 38.916-21.3379 32.6172-21.3379C26.2695-21.3379 21.0449-16.1133 21.0449-9.81445C21.0449-3.56445 26.2207 1.75781 32.6172 1.75781Z"/>
   <path class="monochrome-4 multicolor-4:systemBlueColor SFSymbolsPreview007AFF" d="M61.0352 1.75781C67.334 1.75781 72.6074-3.51562 72.6074-9.81445C72.6074-16.1133 67.334-21.3379 61.0352-21.3379C54.6875-21.3379 49.4629-16.1133 49.4629-9.81445C49.4629-3.51562 54.6875 1.75781 61.0352 1.75781Z"/>
   <path class="monochrome-5 multicolor-5:systemIndigoColor SFSymbolsPreview5856D6" d="M75.1953-23.6816C81.543-23.6816 86.7676-28.9551 86.7676-35.2539C86.7676-41.5527 81.543-46.8262 75.1953-46.8262C68.8965-46.8262 63.623-41.5527 63.623-35.2539C63.623-28.9551 68.8965-23.6816 75.1953-23.6816Z"/>
   <path class="monochrome-6 multicolor-6:systemBlueColor SFSymbolsPreview007AFF" d="M61.0352-49.1699C67.334-49.1699 72.6074-54.3945 72.6074-60.6934C72.6074-66.9922 67.334-72.2656 61.0352-72.2656C54.6875-72.2656 49.4629-66.9922 49.4629-60.6934C49.4629-54.3945 54.6875-49.1699 61.0352-49.1699Z"/>
  </g>
  <g id="Ultralight-S" transform="matrix(1 0 0 1 515.634 696)">
   <path class="monochrome-0 multicolor-0:tintColor SFSymbolsPreviewFFFFFF" d="M44.1016-24.4536C49.9463-24.4536 54.8565-29.3638 54.8565-35.2539C54.8565-41.144 49.9463-46.0542 44.1016-46.0542C38.208-46.0542 33.3013-41.144 33.3013-35.2539C33.3013-29.3638 38.208-24.4536 44.1016-24.4536Z"/>
   <path class="monochrome-1 multicolor-1:systemIndigoColor SFSymbolsPreview5856D6" d="M30.8462-48.2163C36.7363-48.2163 41.6465-53.0776 41.6465-58.9678C41.6465-64.8579 36.7363-69.7681 30.8462-69.7681C24.9526-69.7681 20.0913-64.8579 20.0913-58.9678C20.0913-53.1265 24.9038-48.2163 30.8462-48.2163Z"/>
   <path class="monochrome-2 multicolor-2:systemBlueColor SFSymbolsPreview007AFF" d="M17.6362-24.4536C23.4844-24.4536 28.3911-29.4092 28.3911-35.2539C28.3911-41.144 23.4844-46.0542 17.6362-46.0542C11.7461-46.0542 6.83594-41.144 6.83594-35.2539C6.83594-29.4126 11.6973-24.4536 17.6362-24.4536Z"/>
   <path class="monochrome-3 multicolor-3:systemIndigoColor SFSymbolsPreview5856D6" d="M30.8462-0.739726C36.7363-0.739726 41.6465-5.64989 41.6465-11.54C41.6465-17.4302 36.7363-22.2915 30.8462-22.2915C24.9526-22.2915 20.0913-17.4302 20.0913-11.54C20.0913-5.69871 24.9038-0.739726 30.8462-0.739726Z"/>
   <path class="monochrome-4 multicolor-4:systemBlueColor SFSymbolsPreview007AFF" d="M57.3116-0.739726C63.2017-0.739726 68.1119-5.64989 68.1119-11.54C68.1119-17.4302 63.2017-22.2915 57.3116-22.2915C51.418-22.2915 46.5567-17.4302 46.5567-11.54C46.5567-5.64989 51.418-0.739726 57.3116-0.739726Z"/>
   <path class="monochrome-5 multicolor-5:systemIndigoColor SFSymbolsPreview5856D6" d="M70.5635-24.4536C76.4571-24.4536 81.3184-29.3638 81.3184-35.2539C81.3184-41.144 76.4571-46.0542 70.5635-46.0542C64.6734-46.0542 59.7632-41.144 59.7632-35.2539C59.7632-29.3638 64.6734-24.4536 70.5635-24.4536Z"/>
   <path class="monochrome-6 multicolor-6:systemBlueColor SFSymbolsPreview007AFF" d="M57.3116-48.2163C63.2017-48.2163 68.1119-53.0776 68.1119-58.9678C68.1119-64.8579 63.2017-69.7681 57.3116-69.7681C51.418-69.7681 46.5567-64.8579 46.5567-58.9678C46.5567-53.0776 51.418-48.2163 57.3116-48.2163Z"/>
  </g>
 </g>
</svg>
