<svg width="166" height="66" viewBox="0 0 166 66" fill="none" xmlns="http://www.w3.org/2000/svg">
<path d="M15.1611 13.616C15.0171 13.856 14.8731 14.144 14.7291 14.432C13.9611 15.824 13.3371 17.312 12.7131 18.8C11.7531 20.912 10.8411 23.024 9.92906 25.136C9.44906 26.192 9.01706 27.296 8.53706 28.304C8.15306 29.024 7.62506 30.08 6.95306 30.944C6.90506 30.992 6.85706 31.04 6.80906 31.088L6.61706 30.512L3.54506 27.488L1.76906 30.656C1.00106 31.904 0.665062 33.344 0.665062 34.784C0.665062 37.136 1.52906 39.152 2.96906 40.544L6.04106 43.616C7.48106 45.104 9.54506 45.968 11.8971 45.968C12.8571 45.968 13.9611 45.872 15.0651 45.296C15.9291 45.44 16.7931 45.872 17.7531 46.544C18.9531 47.36 20.0571 48.368 21.0651 49.184C25.0491 52.64 30.3291 56.48 35.8491 56.48C40.4571 56.48 45.4491 53.6 45.4491 48.56C45.4491 46.88 44.8731 45.152 43.6731 43.904L40.6011 40.88C39.5931 39.872 38.2011 39.296 36.4251 39.392C39.5451 40.4 41.7051 44.48 40.3131 47.552C39.2091 50.144 36.2331 51.776 32.7771 51.776C31.4811 51.776 30.0891 51.536 28.6971 51.008C20.1531 47.792 16.6011 40.784 11.6571 40.496C11.1291 40.88 10.4571 41.12 9.73706 41.168C3.16106 41.792 0.953062 35.408 3.20906 31.472C3.73706 32.864 4.55306 33.776 5.56106 33.776C6.80906 33.776 8.39306 32.432 10.0251 29.072C10.4091 28.256 14.9691 17.552 16.2171 15.2C17.7531 12.272 19.5771 10.112 21.8331 9.104C20.1531 9.488 17.4651 10.448 15.3051 10.016C9.92906 8.96 10.7931 3.44 10.7931 3.44C12.7611 4.688 15.2091 5.168 18.0891 5.168C19.0971 5.168 20.1051 5.12 21.1611 5.024C24.8091 4.688 27.1611 5.168 28.6491 8.144C21.5451 10.112 17.9451 29.216 15.0171 36.032C17.7051 36.128 23.7531 39.536 25.8651 40.544C27.5451 41.36 30.3291 42.512 32.4411 42.512C32.9691 42.512 33.4491 42.464 33.8811 42.272C35.1291 41.744 35.7051 40.544 35.4171 39.584C35.7531 39.488 36.1371 39.44 36.4251 39.392C36.0411 39.296 35.6571 39.2 35.2731 39.2C35.3211 39.296 35.3691 39.44 35.4171 39.584C34.9371 39.68 34.4091 39.824 33.8331 40.064C33.8331 40.256 33.5451 40.832 32.4411 40.832C30.7611 40.832 28.4571 39.92 26.5851 39.008C25.2411 38.384 23.2251 37.28 21.1611 36.32C21.0651 36.272 20.9691 36.224 20.8731 36.176C21.9771 32.768 23.2731 28.304 24.8091 24.08C25.8651 21.2 28.6971 13.76 32.1531 12.8L34.1211 12.272L33.2091 10.448C32.7771 9.584 32.2971 8.912 31.7211 8.336L28.6491 5.264C27.1611 3.776 25.1931 3.248 22.9371 3.248C21.3531 3.248 19.7211 3.488 18.0891 3.488C15.6891 3.488 13.4811 3.152 11.7051 2L9.54506 0.655997L9.11306 3.152C9.06506 3.536 9.06506 3.92 9.06506 4.256C9.06506 6.464 9.83306 8.384 11.1771 9.728L14.2491 12.8C14.5371 13.088 14.8251 13.376 15.1611 13.616ZM53.3784 19.712C52.4184 20.384 51.3144 20.96 50.1624 21.44C49.6824 20 48.9144 18.752 47.9064 17.696L44.8344 14.672C43.1544 12.944 40.7064 11.936 37.8264 11.936C36.1464 11.936 33.7944 12.32 32.1624 13.808C25.4904 15.008 20.4024 23.408 20.4024 29.888C20.4024 32.96 21.4584 35.648 23.3304 37.52L26.3544 40.592C28.0824 42.32 30.5304 43.328 33.5544 43.328C40.2264 43.328 45.8424 38.576 48.7224 32.816C50.9304 32.384 53.0424 31.52 54.9624 30.32L55.3944 30.032C55.8744 29.744 56.2584 29.36 56.2584 29.312C57.1704 27.872 57.9864 26.432 58.8504 24.992L62.8824 18.224L59.8104 15.2L53.3784 19.712ZM45.7464 24.368C48.7224 23.984 51.8904 22.784 54.3384 21.056L51.7944 25.328C49.6824 26.864 47.0904 27.872 44.4984 28.256C42.0984 33.776 36.8184 38.624 30.4824 38.624C25.4904 38.624 21.4584 35.168 22.1784 28.352C22.7544 23.12 27.2664 16.064 32.9304 15.392C33.9384 14.24 35.8104 13.664 37.8264 13.664C40.2264 13.664 42.8184 14.528 44.2584 16.544C45.9384 18.752 46.2264 21.584 45.7464 24.368ZM36.8184 17.648C35.8584 18.224 36.0024 20.144 37.2504 21.92C38.2104 23.216 39.6504 23.984 41.4264 24.32C41.7624 22.256 41.6664 19.808 40.3704 18.56C39.3624 17.6 38.0664 17.36 36.8184 17.648ZM39.9384 28.352C35.8104 27.776 32.2584 25.232 31.9704 20.816C31.9704 20.864 31.9224 20.864 31.8744 20.912L31.7304 21.152C31.6824 21.152 31.6824 21.2 31.6344 21.248C28.7064 25.088 26.8344 33.824 32.9784 33.584C35.7144 33.488 38.3544 31.04 39.9384 28.352ZM36.3384 30.224C35.4744 30.992 34.5624 31.568 33.6504 31.808C33.6984 30.704 33.9864 29.504 34.4184 28.352L35.9544 29.888C36.0984 29.984 36.1944 30.08 36.3384 30.224ZM74.3252 13.568C73.1252 12.992 70.3892 12.512 69.0932 12.512C67.6052 12.512 65.9732 12.752 65.2052 14.192C65.1092 14.336 65.0132 14.528 64.9172 14.768C63.9092 13.856 62.4692 13.376 60.7412 13.376C52.4372 13.376 45.9092 22.256 45.9092 30.032C45.9092 32.768 46.8692 35.408 48.6932 37.232L51.7172 40.304C53.2052 41.792 55.2692 42.704 57.8132 42.704C60.0212 42.704 61.9412 41.792 63.4772 40.64C64.2932 41.84 65.5892 42.608 67.5092 42.608C70.6772 42.608 74.2292 39.296 75.3332 36.56L73.5572 34.832C74.0852 30.992 77.2532 23.408 78.8372 19.76C78.9332 19.52 78.9812 19.232 78.9812 18.896C78.9812 18.176 78.6932 17.648 78.3092 17.264C78.3092 17.264 76.1492 15.008 75.7172 14.576C75.2852 14.144 75.1892 13.904 74.3252 13.568ZM53.0612 37.76C49.0772 36.896 46.0532 32.384 48.4052 25.424C50.9492 17.936 56.8052 15.056 60.7412 15.056C61.7972 15.056 62.7092 15.296 63.3812 15.68C64.6292 16.448 65.0612 17.888 64.8692 19.568C65.5412 17.792 66.1652 16.16 66.6932 14.96C66.9332 14.384 67.8932 14.192 69.0932 14.192C71.4452 14.192 74.6612 15.104 74.2292 16.016C73.1252 18.32 71.0132 23.6 69.5732 28.304C67.8932 33.824 68.9972 34.736 69.9092 34.736C70.3892 34.736 70.7732 34.496 70.7732 34.496C70.7732 34.496 67.5092 37.904 64.4372 37.904C62.3732 37.904 61.3652 36.608 61.1732 34.64C59.2052 36.704 57.1412 37.952 54.7412 37.952C54.2132 37.952 53.6372 37.904 53.0612 37.76ZM56.3252 21.824C57.0932 22.16 57.7652 22.256 58.2932 22.256C60.4052 22.256 60.9812 20.432 60.7892 19.808C60.4532 18.848 59.7332 18.416 58.8692 18.416C57.2372 18.416 55.0772 19.904 54.0212 22.4C52.3412 26.48 52.4852 33.104 56.9972 33.392C58.8692 33.536 60.7892 32.144 61.5572 30.224C62.2772 28.496 62.5172 26.384 63.1412 24.32C62.2292 25.856 60.8852 27.536 58.9172 27.536C56.6612 27.536 54.6932 25.184 56.3252 21.824ZM58.8212 31.136C58.5332 31.376 58.1972 31.568 57.8132 31.664C57.7652 31.28 57.7652 30.944 57.7652 30.512L57.8132 29.84C58.0532 30.32 58.4372 30.752 58.8212 31.136ZM89.7643 15.344C88.7083 14.336 87.1723 13.856 85.5403 13.856C77.8603 13.856 70.9963 22.976 70.9963 30.176C70.9963 32.768 71.9563 35.264 73.7323 37.04L76.8043 40.064C78.2443 41.552 80.2603 42.464 82.7563 42.464C84.8203 42.464 86.6443 41.696 88.1323 40.592C88.9483 41.888 90.2923 42.704 92.3083 42.704C94.9963 42.704 99.2203 39.296 100.084 36.896L98.2123 34.784C99.2683 29.12 105.796 14 107.908 9.44C108.004 9.296 108.148 8.96 108.148 8.576C108.148 7.808 107.764 7.376 107.38 6.992C107.188 6.8 105.556 5.072 105.124 4.64C104.644 4.16 104.404 3.92 103.588 3.44C102.532 2.96 100.756 2.816 99.6043 2.816C97.8283 2.816 95.3803 3.008 94.4203 4.784C94.1803 5.264 93.9403 5.84 93.7483 6.368L92.4523 9.248C91.5403 11.264 90.6283 13.328 89.7643 15.344ZM78.1003 37.568C74.2603 36.704 70.9963 32.192 73.6363 25.568C76.5643 18.272 81.8923 15.536 85.5403 15.536C86.5483 15.536 87.4123 15.776 88.0843 16.16C89.4763 16.976 89.8123 18.704 89.4283 20.576C91.9243 14.288 94.8523 8.096 95.9083 5.552C96.2443 4.784 97.9243 4.496 99.6043 4.496C101.668 4.496 103.732 4.976 103.348 5.696C100.804 10.88 95.5723 24.176 94.1803 28.784C92.5483 34.064 93.6523 34.928 94.5643 34.928C94.9963 34.928 95.3803 34.736 95.3803 34.736C95.3803 34.736 92.3083 37.952 89.2843 37.952C87.0763 37.952 86.0203 36.704 85.8763 34.592C84.0523 36.56 81.9883 37.76 79.6843 37.76C79.1563 37.76 78.6283 37.712 78.1003 37.568ZM81.3643 22.064C82.1323 22.4 82.7563 22.496 83.2843 22.496C85.2043 22.496 85.7803 20.768 85.5883 20.144C85.3003 19.232 84.5803 18.8 83.7643 18.8C82.2283 18.8 80.1163 20.288 79.0603 22.688C77.3803 26.624 77.5723 32.96 81.9403 33.248C83.7643 33.392 85.5883 32.096 86.3563 30.224C87.0763 28.4 87.4123 26.24 88.0843 24.128C87.2203 25.712 85.7803 27.584 83.7643 27.584C81.6043 27.584 79.7323 25.376 81.3643 22.064ZM83.6203 31.088C83.3803 31.28 83.0923 31.376 82.8523 31.472C82.8043 31.184 82.8043 30.944 82.8043 30.608V30.128C83.0443 30.464 83.2843 30.8 83.6203 31.088ZM113.196 4.448C112.092 3.392 110.652 2.72 109.02 2.72C105.756 2.72 103.116 5.36 103.116 8.624C103.116 10.256 103.788 11.744 104.844 12.8L105.996 13.952C105.468 13.904 105.036 13.856 104.748 13.856C103.308 13.856 101.484 14.192 100.812 15.632C100.332 16.592 99.9478 17.648 99.5158 18.704C97.9798 22.544 95.4358 29.312 95.4358 33.92C95.4358 35.456 95.8198 37.28 97.0198 38.48L100.044 41.504C100.812 42.32 101.964 42.8 103.548 42.8C106.236 42.8 111.228 39.008 110.892 36.08C110.892 36.176 109.692 34.544 109.692 34.544C109.932 32.96 110.556 30.944 111.372 28.736C112.476 25.904 113.724 23.072 114.588 21.152C114.636 20.96 114.78 20.624 114.78 20.288C114.78 18.896 113.58 18.224 113.148 17.984L112.668 17.552C115.644 17.264 117.996 14.72 117.996 11.696C117.996 10.064 117.324 8.576 116.22 7.52L113.196 4.448ZM109.02 4.4C111.324 4.4 113.244 6.32 113.244 8.624C113.244 10.976 111.324 12.848 109.02 12.848C106.668 12.848 104.796 10.976 104.796 8.624C104.796 6.32 106.668 4.4 109.02 4.4ZM102.3 16.352C102.54 15.776 103.548 15.536 104.748 15.536C107.196 15.536 110.412 16.448 109.98 17.408C108.876 19.76 107.148 23.6 105.708 28.352C103.98 33.968 105.132 34.88 106.092 34.88C106.524 34.88 106.908 34.688 106.908 34.688C106.908 34.688 103.596 38.096 100.476 38.096C99.7078 38.096 98.9398 37.856 98.2198 37.28C94.8598 34.496 99.8998 22.16 102.3 16.352ZM127.184 12.464C125.216 12.464 123.392 13.04 121.76 13.856C121.664 13.76 121.568 13.712 121.52 13.712C120.128 12.944 117.776 12.608 116.192 12.608C114.656 12.608 112.976 12.8 112.208 14.336C111.728 15.344 111.344 16.448 110.96 17.456C109.328 21.584 106.544 29.024 106.544 33.872C106.544 35.408 106.928 37.136 108.08 38.288L111.152 41.36C111.92 42.128 113.024 42.608 114.608 42.608C117.536 42.608 120.128 40.256 121.616 37.952C121.664 37.952 121.664 38 121.712 38.048L121.856 38.192C121.856 38.24 121.904 38.288 121.904 38.288L124.976 41.36C125.696 42.128 126.8 42.608 128.384 42.608C131.456 42.608 134.48 39.632 135.776 37.088L134.336 35.408C134.432 33.68 135.104 31.808 135.92 29.696C136.352 28.544 136.784 27.44 137.072 26.384C137.408 25.28 137.696 24.128 137.696 22.976C137.696 20.816 136.928 18.944 135.584 17.648L132.56 14.576C131.216 13.232 129.344 12.464 127.184 12.464ZM121.328 15.968C123.536 14.672 125.504 14.144 127.184 14.144C131.504 14.144 133.76 17.84 132.704 21.824C132.128 23.936 131.12 26.144 130.448 28.304C128.816 33.824 129.92 34.736 130.832 34.736C131.264 34.736 131.648 34.496 131.648 34.496C131.648 34.496 128.384 37.856 125.312 37.856C124.544 37.856 123.776 37.664 123.104 37.088C120.8 35.168 122.768 27.968 124.928 21.824C125.456 20.336 125.84 18.512 125.072 17.84C124.496 17.36 123.776 17.072 123.008 17.072C122 17.072 120.944 17.552 120.224 18.512C118.544 20.816 117.68 24.896 116.624 28.352C114.944 33.872 116.096 34.736 117.008 34.736C117.488 34.736 117.872 34.544 117.872 34.544C117.872 34.544 114.56 37.904 111.536 37.904C110.768 37.904 110 37.664 109.28 37.088C105.968 34.4 111.392 20.72 113.744 15.056C113.984 14.48 114.992 14.288 116.192 14.288C118.448 14.288 121.472 15.104 121.328 15.968ZM152.81 14.432C151.562 13.184 149.738 12.464 147.482 12.464C141.194 12.464 136.25 17.12 133.562 22.448C132.65 24.272 132.074 26.288 132.074 28.4C132.074 31.376 133.082 33.92 134.858 35.696L137.738 38.576C133.322 40.304 129.626 44.576 129.626 49.52C129.626 51.776 130.586 53.696 132.026 55.136L135.05 58.208C136.874 60.032 139.466 61.088 141.914 61.088C148.442 61.088 151.754 55.904 154.058 50.528C154.106 50.576 154.154 50.624 154.202 50.624C155.882 52.784 157.13 55.28 158.09 57.872L159.626 62.096L162.698 65.168L164.282 60.944C165.098 58.832 165.626 56.528 165.626 54.176C165.626 50.336 164.33 47.36 162.074 45.104L159.002 42.08C158.474 41.504 157.898 41.024 157.226 40.544C157.754 38.432 158.282 36.272 158.906 34.16L160.394 29.12L157.37 26.144C157.706 25.088 157.898 23.984 157.898 22.928C157.898 20.672 157.178 18.8 155.882 17.504L152.81 14.432ZM132.458 45.248C134.666 40.88 139.802 39.008 144.842 38.864C145.274 37.712 145.706 36.512 146.09 35.36C145.178 36.272 143.594 36.752 141.914 36.752C139.466 36.752 136.778 35.792 135.338 33.68C133.514 31.04 133.034 27.2 135.05 23.216C138.458 16.352 143.786 14.144 147.482 14.144C148.346 14.144 149.114 14.288 149.786 14.48C154.778 16.112 153.77 24.608 149.642 26.192C148.874 26.48 148.154 26.624 147.434 26.624C144.458 26.624 142.682 23.888 144.314 20.48C144.938 20.72 145.514 20.864 145.994 20.864C148.106 20.864 149.21 18.896 148.73 17.888C148.394 17.216 147.866 16.88 147.194 16.88C145.562 16.88 143.306 18.608 142.298 21.056C140.522 25.232 141.434 32.288 146.762 33.056C147.242 31.376 147.578 29.84 148.154 28.208C148.49 27.104 150.362 26.624 152.138 26.432C153.962 26.24 155.306 26.864 155.306 26.864V26.96C154.01 31.184 152.906 35.504 151.898 39.776L153.002 40.208C161.978 43.664 161.786 51.728 159.674 57.296C157.706 51.92 154.538 47.312 150.17 44.96C148.202 50.144 145.37 56.336 138.842 56.336C136.586 56.336 134.33 55.376 132.65 53.312C130.634 50.816 131.114 47.936 132.458 45.248ZM142.874 43.232C137.834 43.472 136.874 47.12 138.026 48.032C138.218 48.176 138.41 48.224 138.65 48.224C139.946 48.224 141.53 45.872 142.874 43.232Z" fill="black"/>
</svg>
